<?xml version="1.0" encoding="utf-8"?>
<!-- Generator: Adobe Illustrator 23.0.4, SVG Export Plug-In . SVG Version: 6.00 Build 0)  -->
<svg version="1.1" id="Layer_1" xmlns="http://www.w3.org/2000/svg" xmlns:xlink="http://www.w3.org/1999/xlink" x="0px" y="0px"
	 viewBox="0 0 937.8 131.2" style="enable-background:new 0 0 937.8 131.2;" xml:space="preserve">
<style type="text/css">
	.st0{fill:#440099;}
</style>
<g>
	<path class="st0" d="M406.9,70c1.1-11.1,8.6-19.4,18.5-19.4c11.3,0,17.3,9,18.2,19.4H406.9z M426.7,102.9
		c10.8,0,17.7-4.3,23.4-10.7l-5.3-4.7c-4.6,4.8-10.1,8-17.9,8c-10.1,0-18.8-6.9-20-19.2H452c0.1-1,0.1-1.7,0.1-2.8
		c0-16.6-9.7-30-26.5-30c-15.7,0-27.3,13.2-27.3,29.6v0.2C398.3,90.9,411,102.9,426.7,102.9z M298.1,101.6h8.5V69.2
		c0-10.5,6.8-17.9,15.8-17.9S337,57.5,337,68.2v33.4h8.5V68.8c0-11.2,7-17.6,15.6-17.6c9.2,0,14.7,6.2,14.7,17.2v33.2h8.5V66.4
		c0-14.1-8-22.9-21.1-22.9c-9.9,0-16,5.1-20,11.3c-3.1-6.4-9-11.3-18.3-11.3c-9.6,0-14.6,5.2-18.4,10.8v-9.6h-8.5V101.6z M238.9,70
		c1.1-11.1,8.6-19.4,18.5-19.4c11.3,0,17.3,9,18.2,19.4H238.9z M258.7,102.9c10.8,0,17.7-4.3,23.4-10.7l-5.3-4.7
		c-4.6,4.8-10.1,8-17.9,8c-10.1,0-18.8-6.9-20-19.2H284c0.1-1,0.1-1.7,0.1-2.8c0-16.6-9.7-30-26.5-30c-15.7,0-27.3,13.2-27.3,29.6
		v0.2C230.3,90.9,243,102.9,258.7,102.9z M192.4,101.6h8.5V79c0-17.2,10.1-26.1,22.6-26.1h0.7v-9.1c-10.8-0.4-19,6.4-23.2,15.8V44.7
		h-8.5V101.6z M170,102.6c4.1,0,7.3-0.9,10.2-2.4v-7.3c-3,1.4-5.4,2-8.2,2c-5.7,0-9.6-2.5-9.6-9.5V52.2h18v-7.5h-18V27.6h-8.5v17.2
		H146v7.5h7.9v34.3C153.9,98.1,160.8,102.6,170,102.6z M93.2,44.7h-9.7l21.3,27.9l-22.2,28.9h9.5l17.7-23.4l17.6,23.4h9.8l-22.4-29
		l21.6-27.8h-9.5L109.9,67L93.2,44.7z M15.5,101.6h56.2v-7.9H24.2v-27h42v-7.9h-42V32.5h47v-7.9H15.5V101.6z"/>
	<path d="M735,95.2c-10.7,0-20-8.6-20-22V73c0-13.7,9-21.9,20-21.9c10.6,0,20.6,8.8,20.6,21.9v0.2C755.5,86.3,745.5,95.2,735,95.2z
		 M733.4,102.8c10.5,0,17.2-5.8,21.8-12.7v11.4h8.5V21.3h-8.5v34.3c-4.4-6.4-11.2-12.1-21.8-12.1c-13.6,0-27.2,11-27.2,29.6v0.2
		C706.2,92,719.8,102.8,733.4,102.8z M663.8,102.8c9.8,0,15.6-5,19.5-11.1v9.9h8.4V44.7h-8.4v32.6c0,10.7-7.4,17.8-17,17.8
		c-10,0-15.7-6.6-15.7-17.2V44.7H642v35.3C642,93.6,650.1,102.8,663.8,102.8z M599,95.3c-12,0-21-9.9-21-22.1V73
		c0-12,8.5-22,20.8-22c12,0,21.1,10,21.1,22.2v0.2C619.9,85.4,611.4,95.3,599,95.3z M598.8,102.9c17.2,0,29.8-13.6,29.8-29.7V73
		c0-16.1-12.5-29.5-29.6-29.5c-17.2,0-29.7,13.6-29.7,29.7v0.2C569.3,89.5,581.8,102.9,598.8,102.9z M546.5,101.6h8.5V21.3h-8.5
		V101.6z M503.1,102.9c14,0,22.8-5.4,30.8-13.5l-5.7-5.6c-7.4,7-14.3,11.1-24.9,11.1c-16.9,0-29.8-14-29.8-31.8v-0.2
		c0-17.7,12.8-31.6,29.8-31.6c10.5,0,17.7,4.4,24.2,10.6l5.9-6.4c-7.7-7.3-16.1-12.2-30-12.2c-22.7,0-38.9,18-38.9,39.8v0.2
		C464.5,85.4,480.9,102.9,503.1,102.9z"/>
	<g>
		<path d="M775.5,22.4h-2.8v-0.9h6.6v0.9h-2.8v7.5h-1V22.4z"/>
		<path d="M780.6,21.5h1l3.1,4.6l3.1-4.6h1v8.4h-0.9v-6.8l-3.1,4.5h0l-3.1-4.5v6.8h-0.9V21.5z"/>
	</g>
	<g>
		<path d="M911.9,88.9c5.7-7,9.1-16.2,9.1-25.7v-0.2c0-21.2-15.7-39.6-39.2-39.6c-23.4,0-39.4,18.6-39.4,39.8v0.2
			c0,21.2,15.7,39.6,39.2,39.6c9.5,0,17.7-3.1,24.2-8.1l10.2,9.1l5.9-6.5L911.9,88.9z M905.5,83.5l-14.4-13.1l-5.8,6.5l14.4,12.3
			c-4.8,3.6-11,5.7-17.8,5.7c-17.6,0-30.4-14.3-30.4-31.8v-0.2c0-17.5,12.5-31.6,30.1-31.6c17.6,0,30.4,14.3,30.4,31.8v0.2
			C912,71,909.7,78,905.5,83.5z"/>
		<rect x="816" y="24.6" width="8.7" height="77"/>
	</g>
</g>
</svg>
